<?xml version="1.0" encoding="UTF-8" standalone="no"?>
<svg width="60px" height="60px" viewBox="0 0 60 60" version="1.1" xmlns="http://www.w3.org/2000/svg" xmlns:xlink="http://www.w3.org/1999/xlink">
    <!-- Generator: sketchtool 39.1 (31720) - http://www.bohemiancoding.com/sketch -->
    <title>0C2712B9-4923-4079-AC95-0A5F56F0D4D3</title>
    <desc>Created with sketchtool.</desc>
    <defs></defs>
    <g id="Welcome" stroke="none" stroke-width="1" fill="none" fill-rule="evenodd">
        <g id="connecting-Desktop-HD" transform="translate(-736.000000, -926.000000)">
            <g id="Group-4" transform="translate(661.000000, 926.000000)">
                <g id="mute" transform="translate(75.000000, 0.000000)">
                    <g id="Group-2" transform="translate(5.000000, 5.000000)">
                        <ellipse id="Oval-138" stroke="#FFFFFF" fill="#4990E2" cx="25" cy="25" rx="25" ry="25"></ellipse>
                        <path d="M24.1764706,29.6570435 L24.9496765,29.6570435 C26.6967353,29.6570435 28.1261471,28.2483478 28.1261471,26.5266087 L28.1261471,13.1304348 C28.1261471,11.4086957 26.6967353,10 24.9496765,10 L24.1764706,10 C22.4294118,10 21,11.4086957 21,13.1304348 L21,26.5266087 C21,28.2483478 22.4294118,29.6570435 24.1764706,29.6570435" id="Fill-1" fill="#FFFFFF"></path>
                        <path d="M29.8942369,37.3214189 L26.1224428,37.3214189 L26.1224428,35.543332 C28.0225016,35.2968102 29.6123252,34.5019407 30.859884,33.1699407 C34.1975605,29.6069842 33.739884,23.4603755 33.7189722,23.2005494 C33.6607369,22.4823755 33.0214722,21.945245 32.2937957,22.0044624 C31.5653252,22.0618537 31.0221487,22.6905494 31.0801193,23.4084624 C31.1984428,24.8625494 31.0396193,29.1322015 28.9150899,31.4004624 C27.8951781,32.4890711 26.548884,33.0183755 24.7989134,33.0183755 C23.0576781,33.0183755 21.7264722,32.4945494 20.7290605,31.4166363 C18.2299722,28.7158537 18.6773252,23.5094189 18.6847369,23.4267233 C18.7532957,22.7103755 18.2196487,22.0743755 17.4925016,22.0060276 C16.7624428,21.9382015 16.1186781,22.4638537 16.0495899,23.1809842 C16.0247075,23.4410711 15.4720016,29.5968102 18.7654722,33.1662885 C19.9963546,34.5001146 21.5769134,35.2962885 23.475384,35.543332 L23.475384,37.3214189 L19.3356487,37.3214189 C18.6047957,37.3214189 18.0121193,37.9055059 18.0121193,38.6257668 C18.0121193,39.3460276 18.6047957,39.9301146 19.3356487,39.9301146 L29.8942369,39.9301146 C30.6253546,39.9301146 31.2177663,39.3460276 31.2177663,38.6257668 C31.2177663,37.9055059 30.6253546,37.3214189 29.8942369,37.3214189" id="Fill-4" fill="#FFFFFF"></path>
                    </g>
                    <text id="-" font-family="SanFranciscoDisplay-Regular, San Francisco Display" font-size="24" font-weight="normal">
                        <tspan x="15" y="60" fill="#0799FF"> </tspan>
                        <tspan x="19.828125" y="60" font-size="20" fill="#0799FF"></tspan>
                        <tspan x="15" y="89" font-family="SanFranciscoDisplay-Semibold, San Francisco Display" font-size="12" font-weight="500" fill="#FFFFFF">mute</tspan>
                    </text>
                </g>
            </g>
        </g>
    </g>
</svg>